<svg width="0" height="0" class="hidden">
  <symbol fill="none" xmlns="http://www.w3.org/2000/svg" viewBox="0 0 18 33" id="arrowRight">
    <path d="M1.7893 32.1563C1.55752 32.1562 1.33095 32.0874 1.13826 31.9586C0.945566 31.8298 0.795404 31.6467 0.70676 31.4326C0.618117 31.2184 0.594975 30.9827 0.640261 30.7554C0.685547 30.5281 0.797226 30.3193 0.961176 30.1555L14.5776 16.5391L0.961176 2.92267C0.747709 2.70165 0.629591 2.40563 0.632261 2.09837C0.634931 1.79111 0.758176 1.49719 0.975451 1.27991C1.19273 1.06264 1.48665 0.93939 1.79391 0.93672C2.10117 0.93405 2.39719 1.05217 2.61821 1.26564L17.0635 15.7109C17.2832 15.9307 17.4066 16.2287 17.4066 16.5395C17.4066 16.8502 17.2832 17.1482 17.0635 17.368L2.61821 31.8133C2.50934 31.9221 2.3801 32.0084 2.23787 32.0672C2.09564 32.1261 1.94322 32.1563 1.7893 32.1563Z" fill="white" fill-opacity="0.5"></path>
  </symbol>
</svg>