<svg width="0" height="0" class="hidden">
  <symbol fill="none" xmlns="http://www.w3.org/2000/svg" viewBox="0 0 18 33" id="arrowRight">
    <path d="M1.7893 32.1563C1.55752 32.1562 1.33095 32.0874 1.13826 31.9586C0.945566 31.8298 0.795404 31.6467 0.70676 31.4326C0.618117 31.2184 0.594975 30.9827 0.640261 30.7554C0.685547 30.5281 0.797226 30.3193 0.961176 30.1555L14.5776 16.5391L0.961176 2.92267C0.747709 2.70165 0.629591 2.40563 0.632261 2.09837C0.634931 1.79111 0.758176 1.49719 0.975451 1.27991C1.19273 1.06264 1.48665 0.93939 1.79391 0.93672C2.10117 0.93405 2.39719 1.05217 2.61821 1.26564L17.0635 15.7109C17.2832 15.9307 17.4066 16.2287 17.4066 16.5395C17.4066 16.8502 17.2832 17.1482 17.0635 17.368L2.61821 31.8133C2.50934 31.9221 2.3801 32.0084 2.23787 32.0672C2.09564 32.1261 1.94322 32.1563 1.7893 32.1563Z" fill="white" fill-opacity="0.5"></path>
  </symbol>

  <symbol fill="none" xmlns="http://www.w3.org/2000/svg" viewBox="0 0 20 14" id="email">
    <path d="M19 4.75C18.8011 4.75 18.6103 4.82902 18.4697 4.96967C18.329 5.11032 18.25 5.30109 18.25 5.5V11.5C18.25 11.6989 18.171 11.8897 18.0303 12.0303C17.8897 12.171 17.6989 12.25 17.5 12.25H2.5C2.30109 12.25 2.11032 12.171 1.96967 12.0303C1.82902 11.8897 1.75 11.6989 1.75 11.5V5.5C1.75 5.30109 1.67098 5.11032 1.53033 4.96967C1.38968 4.82902 1.19891 4.75 1 4.75C0.801088 4.75 0.610322 4.82902 0.46967 4.96967C0.329018 5.11032 0.25 5.30109 0.25 5.5V11.5C0.250525 12.0965 0.487923 12.6684 0.91 13.09C1.33155 13.5121 1.90346 13.7495 2.5 13.75H17.5C18.0965 13.7495 18.6684 13.5121 19.09 13.09C19.5121 12.6684 19.7495 12.0965 19.75 11.5V5.5C19.75 5.30109 19.671 5.11032 19.5303 4.96967C19.3897 4.82902 19.1989 4.75 19 4.75Z" fill="white"></path>
    <path d="M9.54998 9.1C9.6798 9.19737 9.8377 9.25 9.99998 9.25C10.1623 9.25 10.3202 9.19737 10.45 9.1L19.3075 2.455C19.4457 2.3508 19.5436 2.20202 19.5846 2.03389C19.6256 1.86576 19.6072 1.68862 19.5325 1.5325C19.4208 1.30174 19.2712 1.09133 19.09 0.91C18.6684 0.487923 18.0965 0.250525 17.5 0.25H2.49998C1.90345 0.250525 1.33153 0.487923 0.909983 0.91C0.728749 1.09133 0.579178 1.30174 0.467482 1.5325C0.392795 1.68862 0.374395 1.86576 0.415403 2.03389C0.456412 2.20202 0.554304 2.3508 0.692482 2.455L9.54998 9.1ZM2.49998 1.75H17.5C17.5696 1.73904 17.6404 1.73904 17.71 1.75L9.99998 7.5625L2.28998 1.75C2.35955 1.73904 2.43041 1.73904 2.49998 1.75Z" fill="white"></path>
  </symbol>
  
  <symbol fill="none" xmlns="http://www.w3.org/2000/svg" viewBox="0 0 18 18" id="phone">
    <path d="M16.4953 12.7266C15.8109 12.0234 13.8656 10.7063 12.5906 10.7063C12.2953 10.7063 12.0375 10.7719 11.8266 10.9078C11.2031 11.3063 10.7062 11.6156 10.4672 11.6156C10.3359 11.6156 10.1953 11.4984 9.88593 11.2313L9.83437 11.1844C8.97655 10.4391 8.79374 10.2469 8.46093 9.90001L8.37655 9.81095C8.31562 9.75001 8.26405 9.69376 8.21249 9.6422C7.92187 9.3422 7.71093 9.12658 6.96562 8.28282L6.9328 8.24532C6.57655 7.8422 6.34218 7.5797 6.32812 7.38751C6.31405 7.20001 6.47812 6.89532 6.89531 6.32814C7.40156 5.64376 7.4203 4.80001 6.95624 3.82032C6.58593 3.04689 5.98124 2.30626 5.44687 1.6547L5.39999 1.59845C4.94062 1.03595 4.40624 0.7547 3.81093 0.7547C3.14999 0.7547 2.60155 1.11095 2.31093 1.29845C2.28749 1.31251 2.26405 1.33126 2.24062 1.34532C1.58905 1.75782 1.11562 2.32501 0.937492 2.90157C0.670305 3.76876 0.49218 4.89376 1.77187 7.23283C2.87812 9.25782 3.88124 10.6172 5.47499 12.2531C6.97499 13.7906 7.64062 14.2875 9.13124 15.3656C10.7906 16.5656 12.3844 17.2547 13.5 17.2547C14.5359 17.2547 15.3516 17.2547 16.5141 15.8531C17.7328 14.3813 17.2266 13.4813 16.4953 12.7266ZM15.9562 15.3469C15.0187 16.4813 14.4797 16.4813 13.5047 16.4813C12.5531 16.4813 11.0766 15.825 9.5578 14.7328C8.10468 13.6828 7.4578 13.2 5.99999 11.7047C4.4578 10.125 3.48749 8.80783 2.41874 6.85314C1.28905 4.78595 1.41562 3.88126 1.6453 3.13595C1.76718 2.73751 2.1328 2.31095 2.62968 2.00157C2.65312 1.98751 2.67655 1.96876 2.70468 1.9547C2.95312 1.79532 3.36562 1.52814 3.81562 1.52814C4.19062 1.52814 4.52343 1.71564 4.84218 2.1047L4.88905 2.16095C6.08437 3.62345 7.01718 4.9172 6.31405 5.87345C5.81718 6.54376 5.55468 6.99845 5.59687 7.4672C5.63437 7.92189 5.93905 8.26408 6.39843 8.7797L6.43124 8.8172C7.18593 9.67032 7.40156 9.89532 7.70156 10.2C7.75312 10.2516 7.80468 10.3078 7.86562 10.3688L7.94999 10.4578C8.29687 10.8188 8.48905 11.0156 9.3703 11.7891L9.42187 11.8359C9.79687 12.1641 10.0734 12.4031 10.4766 12.4031C10.8937 12.4031 11.3531 12.1406 12.225 11.5828C12.3141 11.5266 12.4406 11.4938 12.6 11.4938C13.6172 11.4938 15.3703 12.6563 15.9844 13.2891C16.5469 13.8609 16.8281 14.2922 15.9562 15.3469Z" fill="white"></path>
  </symbol>
</svg>